<svg xmlns="http://www.w3.org/2000/svg" viewBox="0 0 137.1 41.59"><defs><style>.cls-1{fill:#50c8ef;}.cls-2{fill:#ed2c85;}.cls-3{fill:#442f91;}</style></defs><g id="Layer_2" data-name="Layer 2"><g id="Layer_1-2" data-name="Layer 1"><path class="cls-1" d="M106.76,4.6,93.18,28.12A9,9,0,0,0,101,41.59h27.16a9,9,0,0,0,7.77-13.47L122.31,4.6A9,9,0,0,0,106.76,4.6Z"/><path class="cls-2" d="M14.8,4.6,1.22,28.12A9,9,0,0,0,9,41.59H36.15a9,9,0,0,0,7.77-13.47L30.34,4.6A9,9,0,0,0,14.8,4.6Z"/><path class="cls-3" d="M54.11,0h0a0,0,0,0,1,0,0V41.59a0,0,0,0,1,0,0h0a9,9,0,0,1-9-9V9a9,9,0,0,1,9-9Z"/><path class="cls-3" d="M83,0h0a9,9,0,0,1,9,9V32.61a9,9,0,0,1-9,9h0a0,0,0,0,1,0,0V0a0,0,0,0,1,0,0Z"/><polygon class="cls-3" points="82.99 28.9 82.99 41.58 54.11 12.7 54.1 0.01 82.99 28.9"/><polygon class="cls-1" points="54.11 41.59 54.1 12.56 82.99 41.59 54.11 41.59"/><polygon class="cls-2" points="82.99 0 82.99 29.03 54.1 0 82.99 0"/></g></g></svg>