<svg xmlns="http://www.w3.org/2000/svg" viewBox="0 0 121.3 120.42">
    <defs>
        <style>.cls-1{fill:#adb1d9;}.cls-2{fill:#9859a3;}.cls-3{fill:#faf075;}.cls-4{fill:#ffcf59;}.cls-5{fill:#f79a66;}.cls-6{fill:#f16b85;}.cls-10,.cls-7{fill:#ec559e;}.cls-8{fill:#2487c8;}.cls-9{fill:#fff;}.cls-10{font-size:32.07px;font-family:InkFree, Ink Free;}</style>
    </defs>
    <g id="Layer_2" data-name="Layer 2">
        <g id="Layer_1-2" data-name="Layer 1">
            <polygon class="cls-1" points="7.63 92.84 0.17 39.26 0.17 39.25 37.41 0 37.42 0 91.32 4.65 91.33 4.65 121.3 49.69 121.3 49.7 104.78 101.22 104.77 101.22 54.19 120.42 54.18 120.42 7.64 92.85 7.63 92.84"/>
            <polygon class="cls-2" points="7.63 92.84 54.19 120.42 56.58 97.66 27.03 80.11 7.63 92.84"/>
            <polygon class="cls-3" points="45.49 21.49 22.07 46.66 0 39.29 37.42 0 45.49 21.49"/>
            <polygon class="cls-4" points="91.33 4.65 37.41 0 45.32 21.47 79.58 24.18 91.33 4.65"/>
            <polygon class="cls-5" points="98.49 52.97 79.34 24.57 91.33 4.65 121.3 49.69 98.49 52.97"/>
            <polygon class="cls-6" points="87.99 85.44 98.22 52.61 121.3 49.69 104.77 101.22 87.99 85.44"/>
            <polygon class="cls-7" points="54.19 120.42 104.78 101.22 87.99 85.44 56.09 98.21 54.19 120.42"/>
            <polygon class="cls-8" points="0 39.29 7.63 92.84 26.54 80.61 21.8 46.22 0 39.29"/>
            <polygon class="cls-6" points="24.74 81.34 19.76 45.57 44.62 19.38 80.59 22.48 100.6 52.54 89.57 86.92 55.81 99.74 24.74 81.34"/>
            <polygon class="cls-9" points="28.23 79.21 23.72 46.91 46.18 23.24 78.68 26.04 96.75 53.2 86.79 84.26 56.29 95.84 28.23 79.21"/>
            <text class="cls-10" transform="translate(29.03 65.67)">ANA</text>
        </g>
    </g>
</svg>