<?xml version="1.0" standalone="no"?>
<!DOCTYPE svg PUBLIC "-//W3C//DTD SVG 20010904//EN"
 "http://www.w3.org/TR/2001/REC-SVG-20010904/DTD/svg10.dtd">
<svg version="1.0" xmlns="http://www.w3.org/2000/svg"
 width="3228.000000pt" height="3228.000000pt" viewBox="0 0 3228.000000 3228.000000"
 preserveAspectRatio="xMidYMid meet">
<metadata>
Created by potrace 1.14, written by Peter Selinger 2001-2017
</metadata>
<g transform="translate(0.000000,3228.000000) scale(0.100000,-0.100000)"
fill="#000000" stroke="none">
<path d="M12677 21034 c-1 -1 -47 -4 -102 -8 -55 -4 -111 -8 -125 -10 -294
-42 -574 -142 -825 -296 -237 -145 -485 -383 -646 -620 -173 -254 -304 -587
-335 -853 -4 -29 -8 -55 -11 -59 -14 -25 -17 -512 -18 -2925 0 -1480 -1 -2690
-3 -2689 -4 4 -8 30 -17 96 -4 30 -9 64 -11 75 -3 18 -26 123 -29 135 -62 235
-133 393 -317 710 -53 91 -163 282 -246 425 -82 143 -158 274 -168 292 -11 17
-44 76 -75 130 -113 197 -282 489 -300 518 -10 17 -22 37 -26 45 -4 8 -26 47
-48 85 -23 39 -53 90 -67 115 -14 25 -100 173 -190 330 -91 157 -173 300 -184
319 -10 18 -24 41 -29 50 -6 9 -28 47 -50 86 -22 38 -45 79 -52 90 -7 11 -15
27 -19 35 -4 8 -22 39 -41 68 -18 29 -33 54 -33 56 0 3 -19 37 -43 78 -24 40
-55 93 -69 118 -14 25 -106 185 -205 355 -99 171 -195 337 -213 370 -18 33
-36 65 -40 70 -4 6 -17 26 -28 45 -10 19 -61 107 -112 195 -51 88 -101 175
-111 193 -11 17 -27 47 -38 65 -10 17 -43 75 -73 127 -140 244 -253 438 -275
472 -12 21 -23 39 -23 42 0 2 -46 82 -102 177 -55 96 -108 188 -116 204 -9 17
-30 53 -47 80 -17 28 -36 61 -43 75 -38 76 -120 197 -206 305 -259 325 -613
569 -1006 693 -106 33 -189 55 -260 66 -61 10 -117 20 -135 23 -48 9 -417 10
-485 2 -241 -29 -487 -102 -695 -205 -71 -35 -139 -70 -150 -77 -271 -171
-457 -339 -623 -562 -65 -87 -279 -444 -397 -660 -15 -27 -34 -57 -41 -66 -8
-8 -14 -18 -14 -21 0 -5 -29 -56 -175 -308 -43 -74 -103 -178 -133 -230 -65
-114 -80 -139 -121 -208 -17 -29 -31 -55 -31 -57 0 -3 -15 -28 -32 -58 -51
-82 -56 -90 -76 -127 -11 -19 -77 -134 -147 -255 -70 -121 -141 -245 -158
-275 -17 -30 -48 -83 -69 -118 -21 -34 -38 -65 -38 -67 0 -3 -11 -24 -26 -46
-14 -22 -33 -55 -43 -72 -10 -18 -87 -151 -172 -297 -84 -146 -160 -278 -168
-293 -9 -16 -20 -36 -26 -45 -5 -9 -25 -44 -44 -77 -19 -33 -46 -80 -61 -105
-15 -25 -54 -92 -87 -150 -34 -58 -126 -217 -205 -355 -80 -137 -230 -398
-335 -580 -105 -181 -202 -350 -217 -375 -14 -25 -46 -81 -71 -125 -25 -44
-50 -87 -55 -95 -16 -24 -315 -543 -323 -560 -4 -8 -21 -37 -37 -65 -89 -147
-201 -403 -211 -480 0 -5 -5 -17 -9 -25 -10 -19 -57 -231 -64 -290 -3 -25 -8
-72 -12 -105 -9 -75 -9 -323 0 -390 4 -27 9 -70 12 -95 10 -77 34 -191 64
-296 165 -577 564 -1051 1105 -1314 126 -61 337 -141 409 -154 15 -3 59 -12
99 -20 89 -19 123 -24 212 -33 91 -10 6696 -10 6795 -1 41 4 86 10 100 12 13
3 42 8 65 11 22 3 48 8 57 11 9 3 25 6 35 8 50 10 153 40 241 70 108 37 364
158 392 186 3 3 16 11 30 18 68 35 258 189 365 296 130 130 229 256 321 406
50 83 74 131 139 275 34 77 83 223 100 303 2 9 13 60 24 112 12 52 24 136 28
185 6 77 8 84 14 50 3 -22 9 -71 13 -109 4 -38 8 -72 11 -75 2 -4 6 -29 10
-56 8 -68 68 -275 109 -376 57 -143 176 -368 198 -377 4 -2 8 -8 8 -14 0 -18
140 -195 225 -286 98 -104 215 -205 335 -288 211 -147 467 -261 715 -319 138
-33 210 -42 438 -59 21 -1 40 0 42 3 2 4 6316 5 6861 1 98 -1 188 8 316 30 32
6 68 12 80 14 113 19 347 102 495 176 229 114 368 215 554 400 114 114 265
300 304 375 9 17 29 53 46 80 61 103 171 356 184 425 2 8 10 40 19 70 20 71
52 246 61 330 8 76 15 90 16 34 0 -21 2 -46 3 -54 2 -8 6 -39 10 -68 3 -30 11
-75 17 -100 6 -26 13 -58 15 -72 13 -66 71 -250 104 -328 119 -274 257 -481
459 -683 184 -183 354 -305 576 -414 171 -83 422 -163 564 -181 25 -3 48 -7
51 -9 4 -2 44 -7 91 -12 108 -10 6756 -10 6829 0 60 8 157 24 205 33 53 9 179
43 225 59 25 9 52 18 60 20 31 7 139 54 235 102 145 73 304 178 432 286 145
121 344 357 436 517 102 175 205 419 232 549 2 9 10 45 19 81 8 36 17 83 21
105 3 23 7 52 10 65 8 40 19 199 19 275 0 86 -12 288 -19 306 -2 8 -6 30 -9
49 -20 168 -99 418 -188 595 -25 49 -154 280 -188 335 -9 14 -54 92 -90 155
-9 17 -51 89 -92 160 -42 72 -85 146 -96 165 -11 19 -52 91 -92 160 -40 69
-81 140 -91 158 -11 18 -60 102 -108 186 -101 172 -104 178 -219 377 -46 79
-87 151 -92 159 -9 14 -26 44 -92 161 -14 24 -55 94 -91 156 -36 62 -77 132
-90 155 -28 48 -32 55 -662 1143 -252 435 -466 804 -476 820 -10 17 -22 36
-26 44 -3 8 -51 91 -106 185 -55 94 -107 185 -116 201 -13 24 -209 361 -241
415 -5 8 -60 103 -121 210 -183 319 -239 411 -297 490 -274 375 -673 657
-1107 783 -116 34 -172 46 -330 72 -45 7 -212 18 -285 18 -233 0 -487 -45
-718 -129 -204 -74 -433 -202 -607 -341 -92 -74 -257 -241 -320 -323 -27 -36
-52 -67 -55 -70 -17 -16 -123 -184 -181 -287 -18 -32 -308 -536 -345 -600 -11
-18 -57 -98 -104 -179 -47 -81 -97 -168 -112 -193 -15 -25 -33 -57 -41 -71
-13 -24 -109 -190 -300 -520 -49 -85 -101 -175 -115 -200 -22 -40 -203 -352
-480 -830 -52 -91 -104 -181 -115 -200 -11 -19 -41 -72 -68 -118 -27 -45 -49
-87 -49 -92 0 -6 -4 -10 -10 -10 -5 0 -10 -5 -10 -11 0 -6 -23 -49 -51 -97
-29 -48 -61 -103 -71 -122 -11 -19 -35 -60 -53 -90 -18 -30 -44 -75 -57 -100
-14 -25 -115 -200 -225 -390 -231 -398 -572 -989 -601 -1040 -11 -19 -86 -150
-167 -290 -139 -240 -245 -429 -245 -436 0 -2 -12 -29 -26 -60 -66 -144 -148
-443 -153 -558 0 -16 -4 -26 -8 -22 -5 4 -8 1226 -9 2714 -1 2432 -4 2819 -19
2872 -3 8 -7 31 -9 50 -30 230 -154 560 -291 775 -102 159 -156 227 -311 389
-36 38 -167 149 -227 193 -40 29 -77 56 -83 60 -41 31 -175 106 -264 149 -239
116 -517 188 -765 200 -60 3 -118 7 -127 9 -10 2 -18 -1 -18 -6 0 -4 -7 -6
-15 -3 -12 5 -6842 12 -6848 8z m8993 -7448 c0 -3 -4 -8 -10 -11 -5 -3 -10 -1
-10 4 0 6 5 11 10 11 6 0 10 -2 10 -4z"/>
</g>
</svg>
