<svg xmlns="http://www.w3.org/2000/svg" viewBox="0 0 14641.63 4444.1"><defs><style>.cls-1{fill:#50c8ef;}.cls-2{fill:#ed2c85;}.cls-3{fill:#442f91;}</style></defs><g id="Layer_2" data-name="Layer 2"><g id="Layer_1-2" data-name="Layer 1"><g id="Layer_2-2" data-name="Layer 2"><g id="Layer_1-2-2" data-name="Layer 1-2"><path class="cls-1" d="M11399.22,491.3l-1450.4,2512c-263.7,460.8-103.9,1048,356.9,1311.7a960.92,960.92,0,0,0,478.3,126.9h2900.8c530.9-2.4,959.2-434.8,956.8-965.7a962.06,962.06,0,0,0-126.9-473L13060,491.2c-267.4-458.6-855.9-613.6-1314.6-346.2A961.72,961.72,0,0,0,11399.22,491.3Z"/><path class="cls-2" d="M1577.52,491.3l-1450.4,2512C-136.58,3464.1,23.22,4051.3,484,4315a960.58,960.58,0,0,0,474.1,126.9h2899.7c530.9-2.4,959.2-434.8,956.8-965.7a962.06,962.06,0,0,0-126.9-473l-1450.4-2512c-267.9-458.3-856.6-612.7-1314.9-344.8A961.36,961.36,0,0,0,1577.52,491.3Z"/><path class="cls-3" d="M9822.82,961.2V3482.8c0,530.9-430.4,961.2-961.2,961.2L5776,1346.8V4444.1c-530.9,0-961.2-430.4-961.2-961.2V961.3C4814.82,430.4,5245.22.1,5776,.1h0l3085.5,3097.2V0C9392.42,0,9822.82,430.3,9822.82,961.2Z"/><polygon class="cls-3" points="5776.02 0 5776.02 1 5774.92 0 5776.02 0"/><polygon class="cls-1" points="5776.02 4442 5774.92 1341.4 8860.52 4442 5776.02 4442"/><polygon class="cls-2" points="8860.52 0 8860.52 3100.5 5774.92 0 8860.52 0"/></g></g></g></g></svg>